PathFileType	4	(X/Y/Z)	C:/Users/beibeiliu/ov580/test_trc\sequence.28_training_dense_left.trc
DataRate	CameraRate	NumFrames	NumMarkers	Units	OrigDataRate	OrigDataStartFrame	OrigNumFrames
120	120	22	19	mm	120	1	110
Frame#	Time	ThumbCMC			ThumbMCP			ThumbIP			ThumbTip			IndexMCP			IndexPIP			IndexTip			MiddleMCP			MiddlePIP			MiddleTip			RingMCP			RingPIP			RingTip			PinkyMCP			PinkyPIP			PinkyTip			BackHand1			BackHand2			BackHand3	
		X0	Y0	Z0	X1	Y1	Z1	X2	Y2	Z2	X3	Y3	Z3	X4	Y4	Z4	X5	Y5	Z5	X6	Y6	Z6	X7	Y7	Z7	X8	Y8	Z8	X9	Y9	Z9	X10	Y10	Z10	X11	Y11	Z11	X12	Y12	Z12	X13	Y13	Z13	X14	Y14	Z14	X15	Y15	Z15	X16	Y16	Z16	X17	Y17	Z17	X18	Y18	Z18	
0	0	-130.084	26.6411	39.3559	-117.068	11.5073	19.148	-106.51	3.97244	-1.8669	-104.105	-6.13269	-25.002	-140.644	29.6695	-28.9939	-135.652	17.0918	-51.0253	-131.653	-9.47052	-66.5501	-159.901	27.977	-36.0799	-159.931	14.2276	-61.0493	-158.597	-12.7529	-73.2763	-176.77	23.9221	-31.6941	-176.939	14.1938	-51.3251	-174.082	-5.11432	-66.2982	-196.722	16.2657	-18.7117	-195.974	7.54019	-34.4851	-187.978	-7.33637	-51.3174	-179.51	39.5157	11.5446	-181.094	44.0578	42.1749	-155.241	46.6018	25.5921	
1	0.00833333	-131.741	26.8137	35.839	-116.026	13.1166	16.7967	-111.639	5.25954	-3.34215	-105.281	-5.83855	-25.3332	-140.687	29.5788	-31.8384	-136.753	14.5597	-55.6005	-133.271	-10.5858	-67.3422	-158.798	27.5735	-40.1392	-158.784	16.0683	-60.8037	-158.462	-12.8789	-74.7235	-181.006	24.5478	-31.4568	-175.586	14.0004	-52.9283	-172.234	-8.65912	-70.8236	-194.16	17.6328	-16.5326	-195.467	4.78375	-40.2809	-191.435	-6.73008	-53.4757	-181.694	38.9162	13.4027	-180.049	45.7715	37.5384	-154.098	46.2392	22.3042	
2	0.0166667	-131.148	26.783	36.8864	-116.808	13.6156	18.6209	-107.333	4.58607	-7.16178	-105.556	-4.26981	-21.9087	-134.381	28.4072	-35.943	-135.746	15.4735	-54.349	-128.044	-6.64716	-66.8094	-160.174	28.3273	-37.9339	-157.831	14.925	-62.1657	-154.542	-10.0491	-76.0765	-174.791	25.1985	-30.5016	-174.053	10.5916	-57.0824	-172.001	-8.51556	-70.7768	-194.73	17.8594	-19.1888	-195.16	5.4462	-39.2385	-188.745	-7.88665	-52.7036	-181.377	39.5587	11.5621	-178.429	44.3558	36.2348	-154.972	46.2383	23.9513	
3	0.025	-126.201	28.0513	32.0759	-115.772	14.3164	15.1273	-107.391	5.85395	-5.68712	-102.745	-3.76695	-21.4308	-135.627	28.386	-35.5698	-129.624	13.8993	-57.2582	-131.302	-6.0348	-66.181	-156.232	28.7216	-36.8746	-156.092	13.6636	-63.9879	-154.781	-10.7755	-76.8009	-172.748	24.3077	-33.5129	-173.186	10.6081	-56.4118	-168.674	-4.29275	-68.7166	-188.575	17.3867	-17.9234	-189.785	7.2781	-39.866	-188.065	-7.03798	-54.9589	-177.894	38.0731	8.41511	-180.917	43.9722	34.3898	-152.095	46.8341	20.5693	
4	0.0333333	-129.679	27.8472	35.8811	-113.226	14.5472	13.7144	-103.53	5.7107	-4.08764	-99.9103	-4.67651	-23.4878	-131.845	30.3058	-32.3011	-130.099	17.5834	-53.7624	-124.892	-4.89287	-66.8416	-152.949	28.8061	-42.3124	-151.732	12.2953	-64.853	-151.148	-8.0672	-77.1582	-176.097	22.0859	-32.1473	-170.503	9.81193	-57.3245	-168.126	-9.27221	-70.3095	-192.674	14.7843	-19.7985	-187.747	7.17576	-37.8593	-187.082	-7.93865	-54.5936	-177.948	39.3566	9.07628	-174.38	45.2352	33.4274	-151.867	45.8712	20.7234	
5	0.0416667	-129.232	29.033	31.522	-114.527	15.6206	14.5406	-106.405	6.50067	-7.49565	-100.209	-5.11972	-24.326	-131.498	30.8906	-31.2933	-132.795	14.1073	-55.9514	-125.547	-4.72589	-66.4142	-157.294	27.1066	-41.0981	-153.279	14.4715	-63.3541	-154.135	-9.87477	-76.9886	-177.038	22.0907	-32.2629	-173.834	8.83961	-56.8146	-170.543	-7.07512	-68.7555	-191.012	16.0734	-19.6943	-188.817	7.53372	-36.1392	-187.369	-9.5213	-51.8915	-175.399	40.2662	12.5048	-177.348	44.8897	35.1332	-149.334	47.2963	21.8865	
6	0.05	-127.523	30.8783	32.1463	-112.653	15.9762	14.2081	-108.292	5.77935	-2.33737	-103.368	-4.19707	-21.8607	-135.81	29.3492	-35.9293	-129.845	17.7369	-52.6951	-128.006	-4.65903	-65.9424	-158.707	27.0136	-41.5337	-153.812	16.0749	-61.3636	-152.325	-10.3803	-78.5472	-172.989	24.0613	-30.1816	-173.494	11.2276	-54.2385	-166.561	-7.86763	-71.5334	-193.697	15.2722	-19.6857	-190.659	3.1477	-39.9587	-187.281	-10.2588	-53.0573	-174.875	39.3557	12.9497	-179.848	46.0817	36.5062	-153.763	49.759	22.7079	
7	0.0583333	-128.871	33.0496	37.7735	-113.969	17.2789	18.4783	-105.031	7.50914	-5.04293	-100.683	-4.0078	-21.2278	-135.101	32.0064	-34.1026	-129.064	15.7579	-54.9617	-128.966	-3.03693	-65.787	-157.213	28.5062	-40.5894	-154.989	16.0878	-60.9033	-148.663	-10.9302	-78.1497	-173.231	25.4626	-31.0395	-175.973	11.344	-53.9222	-170.145	-4.93161	-68.1992	-193.834	16.9965	-21.9312	-190.59	7.28506	-36.869	-185.809	-10.7412	-53.9519	-180.962	40.4873	13.0452	-180.418	47.3768	35.0446	-151.629	52.4541	22.4708	
8	0.0666667	-130.131	34.0252	35.8887	-115.924	19.0694	16.8041	-109.984	9.9321	-2.02206	-104.723	-1.81609	-23.1006	-135.361	34.9231	-30.9347	-130.618	18.1252	-55.0488	-123.672	-4.19903	-66.4983	-156.807	32.2006	-36.8055	-156.876	15.4763	-62.735	-151.416	-6.86504	-76.3758	-175.472	27.1226	-32.3004	-175.568	14.2386	-53.2917	-166.446	-3.93203	-69.1261	-194.437	20.2336	-17.1564	-190.998	10.6639	-35.8039	-187.746	-6.15275	-53.0584	-178.725	42.6064	11.9307	-182.03	49.2056	38.4163	-153.966	52.0728	24.2931	
9	0.075	-132.794	36.1426	38.0896	-112.177	20.9007	18.7656	-104.81	11.9708	1.06076	-105.624	0.281745	-17.5388	-133.803	35.9102	-31.2419	-132.952	23.1944	-51.2651	-127.068	0.670626	-65.8907	-154.67	33.67	-38.664	-152.097	19.9504	-61.1899	-149.799	-3.65198	-75.2195	-171.948	29.3764	-33.1908	-176.225	16.8373	-52.0479	-167.909	-1.85867	-67.3828	-189.673	22.9709	-16.425	-191.028	10.1323	-37.5737	-185.585	-3.3935	-51.7471	-181.655	44.7123	12.3814	-181.755	51.7381	34.3249	-153.337	54.6513	25.3744	
10	0.0833333	-130.402	37.5943	36.68	-114.131	22.1879	20.0346	-106.534	11.7105	0.0192486	-102.653	-0.256378	-19.4944	-135.542	34.6364	-31.7203	-129.484	22.1195	-50.9853	-126.972	-1.82477	-65.6638	-155.118	32.8713	-39.948	-152.179	19.8811	-59.5249	-152.75	-4.37724	-74.7365	-177.578	27.6288	-30.8679	-174.884	16.4333	-51.9192	-166.549	-2.49345	-68.5222	-189.463	22.9915	-16.7968	-190.426	11.3786	-37.4732	-185.586	-3.13464	-50.9647	-181.163	45.4402	12.5992	-180.664	51.4688	33.4068	-155.093	55.6536	23.8936	
11	0.0916667	-134.276	36.4851	38.8099	-111.898	21.8094	21.8431	-104.759	11.6282	1.64909	-105.297	0.182946	-16.6484	-133.905	34.4566	-32.3365	-129.136	19.709	-52.7118	-127.099	0.751997	-64.0117	-155.332	32.9372	-37.2675	-154.324	17.776	-61.4858	-150.611	-7.80945	-76.77	-176.324	27.919	-29.2223	-171.875	16.4817	-51.1774	-169.704	-1.17908	-66.5028	-188.657	22.0889	-22.2087	-189.227	12.1796	-35.4313	-188.003	-5.85442	-52.1511	-180.981	47.0187	9.93827	-183.399	53.1114	34.4499	-151.8	54.0032	22.2774	
12	0.1	-134.3	37.4535	34.2916	-118.045	21.2695	19.9749	-105.028	10.6345	1.68575	-101.593	-0.458432	-17.2397	-133.246	33.5166	-33.4038	-127.39	19.6306	-51.8506	-125.682	0.611593	-63.1485	-153.761	31.743	-39.0967	-153.88	15.5636	-61.9128	-152.75	-5.17957	-75.503	-178.188	27.2489	-30.9264	-170.614	14.1797	-53.6763	-168.512	-3.46026	-66.8513	-192.771	21.3315	-17.5427	-191.404	11.1855	-34.6591	-186.331	-5.97268	-53.0637	-176.69	45.0067	9.19187	-181.143	52.9106	36.8771	-154.55	53.7071	24.2544	
13	0.108333	-133.396	35.9392	38.661	-114.029	20.7843	19.3158	-105.781	10.861	-0.593717	-103.14	-1.73939	-18.545	-137.937	33.3967	-30.268	-131.016	20.8018	-50.3152	-126.121	-3.96302	-64.5538	-156.056	30.8945	-40.7938	-152.691	15.5164	-61.3961	-150.823	-4.98363	-74.9987	-175.789	26.7127	-32.8642	-173.646	14.982	-50.635	-168.234	-2.74477	-65.588	-190.12	21.2261	-22.0235	-191.211	6.89384	-38.5981	-185.183	-5.84599	-52.2978	-178.266	44.0209	9.39239	-181.55	53.5771	34.2205	-155.536	55.9079	25.844	
14	0.116667	-131.498	37.0094	38.1798	-114.981	21.3786	22.5646	-105.602	10.5731	2.10088	-104.688	-0.614089	-16.926	-137.43	32.166	-32.8368	-132.139	18.6772	-51.0092	-126.151	-4.13868	-63.1951	-154.708	30.8613	-37.1134	-151.615	15.8804	-59.8088	-150.843	-10.9998	-76.346	-175.096	26.1742	-31.6749	-173.117	12.9255	-52.3696	-167.057	-3.04509	-64.6048	-194.095	19.165	-21.4414	-192.775	9.51356	-35.4145	-187.132	-8.42118	-53.8604	-182.601	44.7104	11.8943	-180.427	50.5338	34.4007	-156.381	54.2038	23.3056	
15	0.125	-130.955	36.1974	38.0894	-115.246	20.8064	19.5934	-105.115	10.8043	-2.39352	-102.39	-1.52627	-15.4788	-134.257	33.0926	-30.7748	-127.169	18.7769	-50.7235	-126.405	-6.55425	-64.7507	-157.094	30.8376	-36.1571	-149.844	14.0151	-61.6577	-149.212	-7.50954	-74.9064	-175.776	26.0668	-29.7123	-171.312	13.226	-50.1915	-168.144	-5.01721	-64.8318	-193.594	18.7982	-19.6955	-189.174	8.54408	-35.6375	-183.592	-6.62366	-52.1823	-178.597	43.4087	9.80877	-180.105	51.2469	35.325	-153.169	55.627	21.0347	
16	0.133333	-130.211	37.4595	39.5298	-112.734	21.2981	17.246	-106.18	11.6963	0.383682	-102.912	-0.563181	-20.3473	-135.229	34.0709	-28.9316	-130.279	16.221	-51.8656	-125.254	-3.89055	-63.0503	-158.324	30.1767	-34.5614	-154.451	14.76	-60.1715	-150.646	-7.73665	-73.984	-172.144	25.1494	-30.7572	-173.081	11.2698	-52.3503	-167.189	-7.85427	-67.8109	-191.175	17.6365	-20.1559	-189.287	7.94433	-34.7395	-183.932	-6.51148	-49.4964	-179.667	44.3335	14.0798	-179.137	52.4092	33.6024	-154.96	55.0651	20.5514	
17	0.141667	-128.898	37.1996	38.0657	-114.848	21.1723	22.4401	-106.072	11.0585	2.64783	-101.25	-1.38973	-17.6016	-132.678	33.9177	-27.9965	-130.577	15.5141	-51.3315	-124.978	-4.28138	-61.7406	-156.684	28.6878	-38.6824	-151.899	14.8558	-58.7979	-149.993	-12.9068	-74.5022	-175.634	23.8056	-30.8876	-173.877	11.9333	-50.0157	-163.073	-6.51569	-65.2321	-189.764	18.3221	-17.1287	-190.122	4.95375	-36.328	-185.041	-6.19303	-48.1277	-177.951	43.6502	11.6147	-181.812	50.051	33.7026	-157.089	53.6768	22.7315	
18	0.15	-128.676	35.9649	37.2636	-116.132	20.4931	22.9188	-104.785	8.86252	-0.693712	-105.978	-2.02414	-16.6993	-134.676	31.1287	-26.9055	-129.235	15.9933	-49.8791	-127.152	-6.77277	-61.7107	-156.465	28.7775	-35.2306	-154.868	10.3029	-60.9762	-151.762	-9.59262	-72.409	-175.529	22.6587	-28.0763	-174.719	8.18206	-51.2612	-165.429	-10.3696	-66.8098	-190.988	15.499	-16.1185	-187.94	4.00114	-36.2261	-183.53	-6.73764	-48.7556	-177.571	41.2188	14.3116	-182.807	49.5607	37.1246	-157.902	49.685	24.7242	
19	0.158333	-131.748	34.2135	38.2257	-112.41	19.8803	22.0568	-106.244	9.43893	1.73043	-102.66	-3.2788	-16.7602	-137.109	29.4573	-31.756	-131.175	16.7258	-48.2226	-126.781	-7.60051	-60.8594	-157.501	26.8225	-38.3062	-150.923	12.2464	-58.9012	-150.65	-11.1832	-72.0605	-177.524	20.1147	-31.4772	-173.007	9.14759	-48.6103	-165.209	-10.2963	-65.7587	-193.152	14.7953	-14.3382	-192.054	4.14608	-33.1906	-186.9	-10.373	-48.2187	-179.224	41.5535	11.5542	-181.06	46.2216	39.8041	-153.233	51.2432	26.0321	
20	0.166667	-133.757	34.4176	40.6869	-113.278	19.7528	19.2683	-105.901	9.49476	-1.23828	-103.597	-4.08634	-19.1302	-137.655	31.555	-26.9303	-132.753	14.3297	-50.5807	-126.764	-8.45143	-62.0539	-160.209	26.6679	-34.626	-151.905	13.634	-57.8252	-149.788	-11.9951	-72.8105	-177.585	21.0674	-27.8617	-174.637	7.03266	-52.5563	-165.423	-8.01161	-64.1964	-192.763	14.6734	-14.5956	-192.111	3.8067	-32.7987	-185.072	-8.17463	-48.6573	-179.529	39.1507	13.7501	-180.955	45.9482	36.4684	-157.525	50.4687	22.544	
21	0.175	-131.165	36.5877	37.3497	-115.383	21.2892	23.76	-105.797	11.1385	0.745432	-104.806	-0.821971	-14.0956	-136.155	32.5745	-28.8807	-129.046	19.2597	-48.7608	-124.213	-1.7889	-61.2694	-155.374	29.9306	-37.7903	-154.046	13.477	-59.3225	-149.699	-7.56358	-72.6897	-176.413	23.9042	-26.7182	-172.543	10.7462	-51.6265	-167.346	-5.41577	-64.7308	-190.757	16.3177	-17.4741	-189.247	5.11558	-35.6955	-186.274	-6.68353	-47.842	-178.995	41.2636	13.172	-182.256	47.4014	40.2435	-156.501	51.6794	25.3261	
